<?xml version="1.0" encoding="UTF-8" standalone="no"?>
<!-- Generator: Adobe Illustrator 27.2.0, SVG Export Plug-In . SVG Version: 6.00 Build 0)  -->

<svg
   version="1.1"
   id="Layer_2_00000103949580290878858050000006429225512977355401_"
   x="0px"
   y="0px"
   viewBox="0 0 120 120"
   xml:space="preserve"
   sodipodi:docname="partner-1.svg"
   width="120"
   height="120"
   inkscape:version="1.4.2 (f4327f4, 2025-05-13)"
   xmlns:inkscape="http://www.inkscape.org/namespaces/inkscape"
   xmlns:sodipodi="http://sodipodi.sourceforge.net/DTD/sodipodi-0.dtd"
   xmlns="http://www.w3.org/2000/svg"
   xmlns:svg="http://www.w3.org/2000/svg"><defs
   id="defs17" /><sodipodi:namedview
   id="namedview17"
   pagecolor="#ffffff"
   bordercolor="#000000"
   borderopacity="0.25"
   inkscape:showpageshadow="2"
   inkscape:pageopacity="0.0"
   inkscape:pagecheckerboard="0"
   inkscape:deskcolor="#d1d1d1"
   inkscape:zoom="4.2825485"
   inkscape:cx="75.539133"
   inkscape:cy="50.320505"
   inkscape:window-width="1920"
   inkscape:window-height="991"
   inkscape:window-x="1210"
   inkscape:window-y="1350"
   inkscape:window-maximized="1"
   inkscape:current-layer="Layer_2_00000103949580290878858050000006429225512977355401_" />
<style
   type="text/css"
   id="style1">
	.st0{fill:#FFFFFF;}
	.st1{opacity:0.18;fill:#CECDCC;enable-background:new    ;}
	.st2{fill:#CECDCC;}
	.st3{enable-background:new    ;}
	.st4{fill:#010101;}
	.st5{fill:#5CAC33;}
	.st6{fill:#1E1E1C;}
</style>
<g
   id="Layer_1-2"
   transform="matrix(0.63956665,0,0,0.63956665,15.166378,2.2791098)">
	<g
   id="g17">
		<g
   id="g3">
			<path
   class="st0"
   d="M 70.1,178.8 C 33.1,155.8 1.7,127.6 1.6,103.4 1.4,79.2 1.6,19.6 1.6,19.6 54.8,31.2 70.1,3.1 70.1,3.1 c 0,0 15.3,28 68.5,16.5 0,0 0.2,59.6 0,83.8 -0.2,24.2 -31.5,52.4 -68.5,75.4 z"
   id="path1" />
			<path
   class="st1"
   d="m 70.1,3.1 c 0,0 -15.3,28 -68.5,16.5 0,0 -0.2,59.6 0,83.8 0.2,24.2 31.6,52.4 68.5,75.4 z"
   id="path2" />
			<path
   class="st2"
   d="M 70.1,180.5 69.3,180 C 9.3,142.7 0.1,116 0.1,103.4 -0.1,79.5 0.1,20.2 0.1,19.6 v -1.9 l 1.8,0.4 C 53.4,29.3 68.6,2.7 68.8,2.4 L 70.1,0 71.4,2.4 c 0.2,0.3 15.5,26.9 66.9,15.7 l 1.8,-0.4 v 1.9 c 0,0.6 0.2,59.9 0,83.8 -0.1,12.6 -9.2,39.4 -69.2,76.6 z m -67,-159 c 0,10.2 -0.2,60.4 0,81.9 0.2,20.3 24.6,47.1 67,73.6 42.5,-26.5 66.9,-53.3 67,-73.6 0.2,-21.5 0,-71.7 0,-81.9 C 92.5,30.6 74.7,12.2 70.1,5.9 66.3,11 54,23.9 25.9,23.9 19.2,23.9 11.6,23.2 3.1,21.5 Z"
   id="path3" />
		</g>
		<g
   class="st3"
   id="g4">
			<path
   class="st4"
   d="m 28.4,74.6 c 1.2,-0.2 2.6,-0.4 4.3,-0.4 2.4,0 4.2,0.6 5.3,1.7 1,0.9 1.6,2.3 1.6,4 0,1.7 -0.5,3 -1.4,4 -1.3,1.5 -3.5,2.3 -5.9,2.3 -0.9,0 -1.7,0 -2.5,-0.2 v 8.6 h -1.4 z m 1.4,10.1 c 0.7,0.2 1.6,0.3 2.6,0.3 3.6,0 5.8,-1.8 5.8,-5 0,-3.2 -2.3,-4.6 -5.5,-4.6 -1.3,0 -2.3,0.1 -2.9,0.2 z"
   id="path4" />
		</g>
		<g
   class="st3"
   id="g5">
			<path
   class="st4"
   d="m 50.4,94.6 -0.2,-2.1 h -0.1 c -0.7,1.1 -2.3,2.4 -4.6,2.4 -2.9,0 -4.2,-2 -4.2,-4 0,-3.3 2.9,-5.3 8.8,-5.3 v -0.4 c 0,-1.4 -0.3,-4.3 -3.7,-4.3 -1.3,0 -2.6,0.3 -3.6,1.1 l -0.5,-1.1 c 1.3,-0.9 2.9,-1.2 4.2,-1.2 4.2,0 5,3.1 5,5.7 V 91 c 0,1.1 0.1,2.3 0.2,3.4 h -1.3 z m -0.3,-7.7 c -3.2,-0.1 -7.3,0.4 -7.3,3.8 0,2.1 1.4,3 2.9,3 2.4,0 3.8,-1.5 4.3,-2.9 0.1,-0.3 0.2,-0.6 0.2,-0.9 v -3 z"
   id="path5" />
		</g>
		<g
   class="st3"
   id="g6">
			<path
   class="st4"
   d="m 56.2,84.5 c 0,-1.4 -0.1,-2.9 -0.1,-4.3 h 1.3 l 0.1,2.9 h 0.1 c 0.6,-1.8 2.1,-3.2 4.1,-3.2 0.2,0 0.4,0 0.6,0.1 v 1.4 c -0.2,-0.1 -0.4,-0.1 -0.7,-0.1 -2,0 -3.4,1.7 -3.8,4 -0.1,0.4 -0.1,0.9 -0.1,1.4 v 8 H 56.3 V 84.5 Z"
   id="path6" />
		</g>
		<g
   class="st3"
   id="g10">
			<path
   class="st4"
   d="m 67.8,76 v 4.2 h 4.1 v 1.1 h -4.1 v 9.4 c 0,1.8 0.6,3 2.1,3 0.8,0 1.3,-0.1 1.7,-0.2 l 0.2,1.1 c -0.5,0.2 -1.1,0.3 -2,0.3 -1.1,0 -1.9,-0.3 -2.5,-1 -0.7,-0.8 -0.9,-2 -0.9,-3.4 V 81.4 H 64 v -1.1 h 2.4 v -3.7 z"
   id="path7" />
			<path
   class="st4"
   d="M 75.1,83.6 C 75.1,82.3 75,81.3 75,80.1 h 1.3 l 0.1,2.6 h 0.1 c 0.8,-1.6 2.6,-2.9 5,-2.9 1.4,0 5,0.7 5,6.1 v 8.6 H 85.1 V 86 c 0,-2.6 -1,-5 -4,-5 -2,0 -3.8,1.4 -4.3,3.3 -0.1,0.4 -0.2,0.8 -0.2,1.3 v 8.9 H 75.2 V 83.6 Z"
   id="path8" />
			<path
   class="st4"
   d="m 91.4,87.2 c 0,4.6 2.5,6.4 5.5,6.4 2.1,0 3.2,-0.4 4,-0.8 l 0.4,1.1 c -0.5,0.3 -2,0.9 -4.5,0.9 -4.1,0 -6.7,-3 -6.7,-7.2 0,-4.8 2.8,-7.8 6.5,-7.8 4.7,0 5.6,4.4 5.6,6.5 0,0.4 0,0.6 -0.1,0.9 z m 9.2,-1.1 c 0,-2 -0.8,-5.1 -4.3,-5.1 -3.2,0 -4.6,2.9 -4.8,5.1 z"
   id="path9" />
			<path
   class="st4"
   d="m 105.8,84.5 c 0,-1.4 -0.1,-2.9 -0.1,-4.3 h 1.3 l 0.1,2.9 h 0.1 c 0.6,-1.8 2.1,-3.2 4.1,-3.2 0.2,0 0.4,0 0.6,0.1 v 1.4 c -0.2,-0.1 -0.4,-0.1 -0.7,-0.1 -2,0 -3.4,1.7 -3.8,4 -0.1,0.4 -0.1,0.9 -0.1,1.4 v 8 h -1.4 V 84.5 Z"
   id="path10" />
		</g>
		<g
   id="g16">
			<polygon
   class="st5"
   points="64.4,34.8 58.8,24.9 70.1,24.9 81.4,24.9 75.8,34.8 70.1,44.6 "
   id="polygon10" />
			<path
   class="st6"
   d="m 55,47.8 c 0.2,0.1 0.5,0.1 0.8,0.1 1.2,0 2,-0.6 2,-1.7 0,-1.1 -0.7,-1.5 -1.9,-1.5 -0.5,0 -0.8,0 -1,0.1 v 3 z M 54,44 c 0.5,-0.1 1.1,-0.2 2,-0.2 1,0 1.8,0.2 2.2,0.7 0.4,0.4 0.7,1 0.7,1.7 0,0.7 -0.2,1.3 -0.6,1.7 -0.5,0.6 -1.4,0.9 -2.4,0.9 -0.3,0 -0.6,0 -0.8,-0.1 v 3.2 h -1 z"
   id="path11" />
			<path
   class="st6"
   d="m 62.9,48.9 c -1.1,0 -2.4,0.2 -2.4,1.3 0,0.7 0.5,1 1,1 0.7,0 1.2,-0.5 1.4,-1 0,-0.1 0.1,-0.2 0.1,-0.3 v -1 z m 1,1.5 c 0,0.5 0,1 0.1,1.4 h -1 v -0.7 0 c -0.3,0.5 -0.9,0.8 -1.7,0.8 -1.2,0 -1.7,-0.8 -1.7,-1.6 0,-1.4 1.2,-2.1 3.4,-2.1 V 48 c 0,-0.5 -0.1,-1.3 -1.3,-1.3 -0.5,0 -1.1,0.2 -1.5,0.4 L 60,46.4 c 0.5,-0.3 1.2,-0.5 1.9,-0.5 1.7,0 2.2,1.2 2.2,2.3 z"
   id="path12" />
			<path
   class="st6"
   d="m 66,46.1 0.8,1.2 c 0.2,0.3 0.4,0.6 0.6,0.9 v 0 c 0.2,-0.3 0.4,-0.6 0.6,-0.9 l 0.8,-1.2 h 1.1 l -1.9,2.7 2,2.9 H 68.8 L 68,50.5 c -0.2,-0.3 -0.4,-0.7 -0.6,-1 v 0 c -0.2,0.3 -0.4,0.7 -0.6,1 L 66,51.8 h -1.1 l 2,-2.9 -1.9,-2.8 z"
   id="path13" />
			<path
   class="st6"
   d="m 72.4,44.7 v 1.4 h 1.5 v 0.8 H 72.4 V 50 c 0,0.7 0.2,1.1 0.8,1.1 0.3,0 0.4,0 0.6,-0.1 l 0.1,0.8 C 73.7,51.9 73.4,52 73,52 72.5,52 72.1,51.8 71.9,51.5 71.6,51.2 71.5,50.7 71.5,50 v -3.1 h -0.9 v -0.8 h 0.9 v -1 z"
   id="path14" />
			<path
   class="st6"
   d="m 75.6,49 c 0,1.2 0.7,2.2 1.7,2.2 1,0 1.7,-0.9 1.7,-2.2 0,-1 -0.5,-2.2 -1.7,-2.2 -1.2,0 -1.7,1.1 -1.7,2.2 z m 4.5,-0.1 c 0,2.1 -1.4,3 -2.8,3 -1.5,0 -2.7,-1.1 -2.7,-2.9 0,-1.9 1.2,-3 2.8,-3 1.6,0 2.7,1.1 2.7,2.9 z"
   id="path15" />
			<path
   class="st6"
   d="m 81.4,47.6 c 0,-0.6 0,-1.1 -0.1,-1.5 h 0.9 l 0.1,0.9 v 0 c 0.3,-0.5 0.9,-1.1 1.9,-1.1 0.8,0 2,0.5 2,2.4 v 3.4 h -1 v -3.3 c 0,-0.9 -0.3,-1.7 -1.3,-1.7 -0.7,0 -1.2,0.5 -1.4,1.1 -0.1,0.1 -0.1,0.3 -0.1,0.5 v 3.4 h -1 z"
   id="path16" />
		</g>
	</g>
</g>
</svg>
